HIERARCHY
ROOT Hips
{
	OFFSET -0.001795 -0.223333 0.028219
	CHANNELS 6 Xposition Yposition Zposition Zrotation Yrotation Xrotation 
	JOINT LeftUpLeg
	{
		OFFSET 0.069520 -0.091406 -0.006815
		CHANNELS 3 Zrotation Yrotation Xrotation
		JOINT LeftLeg
		{
			OFFSET 0.034277 -0.375199 -0.004496
			CHANNELS 3 Zrotation Yrotation Xrotation
			JOINT LeftFoot
			{
				OFFSET -0.013596 -0.397961 -0.043693
				CHANNELS 3 Zrotation Yrotation Xrotation
				JOINT LeftToe
				{
					OFFSET 0.026358 -0.055791 0.119288
					CHANNELS 3 Zrotation Yrotation Xrotation
					End Site
					{
						OFFSET 0.000000 0.000000 0.000000
					}
				}
			}
		}
	}
	JOINT RightUpLeg
	{
		OFFSET -0.067670 -0.090522 -0.004320
		CHANNELS 3 Zrotation Yrotation Xrotation
		JOINT RightLeg
		{
			OFFSET -0.038290 -0.382569 -0.008850
			CHANNELS 3 Zrotation Yrotation Xrotation
			JOINT RightFoot
			{
				OFFSET 0.015774 -0.398415 -0.042312
				CHANNELS 3 Zrotation Yrotation Xrotation
				JOINT RightToe
				{
					OFFSET -0.025372 -0.048144 0.123348
					CHANNELS 3 Zrotation Yrotation Xrotation
					End Site
					{
						OFFSET 0.000000 0.000000 0.000000
					}
				}
			}
		}
	}
	JOINT Spine
	{
		OFFSET -0.002533 0.108963 -0.026696
		CHANNELS 3 Zrotation Yrotation Xrotation
		JOINT Spine1
		{
			OFFSET 0.005487 0.135180 0.001092
			CHANNELS 3 Zrotation Yrotation Xrotation
			JOINT Spine2
			{
				OFFSET 0.001457 0.052922 0.025425
				CHANNELS 3 Zrotation Yrotation Xrotation
				JOINT Neck
				{
					OFFSET -0.002778 0.213870 -0.042857
					CHANNELS 3 Zrotation Yrotation Xrotation
					JOINT Head
					{
						OFFSET 0.005152 0.064970 0.051349
						CHANNELS 3 Zrotation Yrotation Xrotation
						End Site
						{
							OFFSET 0.000000 0.000000 0.000000
						}
					}
				}
				JOINT LeftShoulder
				{
					OFFSET 0.078845 0.121749 -0.034090
					CHANNELS 3 Zrotation Yrotation Xrotation
					JOINT LeftArm
					{
						OFFSET 0.090977 0.030469 -0.008868
						CHANNELS 3 Zrotation Yrotation Xrotation
						JOINT LeftForeArm
						{
							OFFSET 0.259612 -0.012772 -0.027456
							CHANNELS 3 Zrotation Yrotation Xrotation
							JOINT LeftHand
							{
								OFFSET 0.249234 0.008986 -0.001171
								CHANNELS 3 Zrotation Yrotation Xrotation
								End Site
								{
									OFFSET 0.000000 0.000000 0.000000
								}
							}
						}
					}
				}
				JOINT RightShoulder
				{
					OFFSET -0.081759 0.118833 -0.038615
					CHANNELS 3 Zrotation Yrotation Xrotation
					JOINT RightArm
					{
						OFFSET -0.096012 0.032551 -0.009143
						CHANNELS 3 Zrotation Yrotation Xrotation
						JOINT RightForeArm
						{
							OFFSET -0.253742 -0.013329 -0.021401
							CHANNELS 3 Zrotation Yrotation Xrotation
							JOINT RightHand
							{
								OFFSET -0.255298 0.007772 -0.005559
								CHANNELS 3 Zrotation Yrotation Xrotation
								End Site
								{
									OFFSET 0.000000 0.000000 0.000000
								}
							}
						}
					}
				}
			}
		}
	}
}
MOTION
Frames: 12
Frame Time: 0.050000
0.000000 0.957850 0.000000 0.593645 21.537885 3.197090 1.180982 -0.261939 -2.907242 2.526297 -0.159260 -0.540488 -4.912558 -2.017217 9.831961 0.000000 0.000000 0.000000 -2.311772 0.595642 -9.842996 -2.815390 0.592084 5.662046 -0.478662 -3.179164 15.767934 0.000000 0.000000 0.000000 0.381961 -0.028776 0.465816 3.286435 -1.606571 -0.164192 -4.995835 1.048932 -0.120379 4.838514 -5.249528 5.046866 0.000000 0.000000 0.000000 -9.746027 -11.395675 1.913186 -60.648388 -2.157347 -6.283456 -6.402099 -19.499998 1.313994 0.000000 0.000000 0.000000 12.784029 5.422863 3.647844 65.745159 0.281029 -4.822405 1.120363 21.809883 1.196067 0.000000 0.000000 0.000000 
0.001885 0.955548 0.001722 0.440255 20.543712 3.666718 1.303826 -0.247050 -2.648542 2.326902 -0.098242 -1.465565 -4.256490 -1.382240 9.268052 0.000000 0.000000 0.000000 -2.808913 0.575821 -10.279237 -1.733687 0.406823 6.382152 -0.112729 -2.281633 12.884902 0.000000 0.000000 0.000000 0.777255 -0.013267 -0.206684 1.953365 -1.002588 0.148933 -5.136221 2.209358 -0.914447 4.627295 -5.407220 6.115946 0.000000 0.000000 0.000000 -8.485266 -12.465373 2.423579 -62.520566 -3.604096 -5.892439 -4.762539 -18.128295 0.957308 0.000000 0.000000 0.000000 13.144647 5.188934 3.666596 65.479847 -0.929708 -5.389813 3.465232 23.321305 1.750943 0.000000 0.000000 0.000000 
0.004271 0.954578 0.002426 0.655260 19.265160 3.640480 1.089871 -0.255124 -2.853251 1.877662 -0.124262 -0.418814 -3.460976 -0.503521 8.720592 0.000000 0.000000 0.000000 -3.426866 0.522698 -10.185907 -1.087320 0.297566 6.972374 0.197132 -1.554394 10.864624 0.000000 0.000000 0.000000 0.800852 -0.033984 0.346019 1.221734 -0.420913 -1.852395 -5.110864 1.749822 1.175097 4.098682 -4.443073 4.515658 0.000000 0.000000 0.000000 -7.446815 -12.480886 2.733667 -63.232214 -4.414110 -5.824185 -6.106821 -17.145916 1.158414 0.000000 0.000000 0.000000 13.120821 6.239354 4.140931 66.514609 -0.484809 -5.543792 3.172205 24.102975 1.787228 0.000000 0.000000 0.000000 
0.007563 0.953512 0.002170 0.696350 18.285696 3.912088 0.619651 -0.301138 -3.563429 2.093854 -0.205341 0.669992 -2.764619 0.238224 8.128764 0.000000 0.000000 0.000000 -3.450177 0.572444 -11.115940 -1.180927 0.333871 7.812851 0.067815 -1.907997 10.678231 0.000000 0.000000 0.000000 0.138246 -0.011778 0.058859 1.154824 -0.455432 -1.269298 -4.564807 1.427773 0.798042 4.352239 -5.084349 6.181367 0.000000 0.000000 0.000000 -7.648634 -13.724032 3.302071 -64.402570 -4.211524 -5.968324 -5.784509 -17.779458 1.179438 0.000000 0.000000 0.000000 11.499078 6.607283 3.919936 67.960442 -0.810767 -5.645547 2.563856 24.302670 1.649063 0.000000 0.000000 0.000000 
0.011196 0.953144 0.000795 0.549679 16.652225 3.452929 0.463322 -0.325076 -3.845019 1.893896 -0.292399 2.324086 -1.776201 1.503330 7.614606 0.000000 0.000000 0.000000 -3.884479 0.588648 -12.326223 -1.057520 0.343985 10.077054 1.326397 0.292281 10.917286 0.000000 0.000000 0.000000 -0.372527 -0.040668 1.254944 1.552999 -0.554165 -2.108872 -4.729824 1.146498 1.701356 4.704756 -5.017732 4.946110 0.000000 0.000000 0.000000 -7.176167 -13.974194 3.615862 -64.621770 -5.046595 -5.606625 -7.148839 -17.605823 1.422743 0.000000 0.000000 0.000000 11.120920 6.769327 3.790446 68.296462 -0.621827 -5.706049 3.231568 25.569091 1.883856 0.000000 0.000000 0.000000 
0.015330 0.953608 -0.001509 0.061509 13.595639 3.400642 0.326348 -0.366124 -4.266916 1.963192 -0.379572 3.470975 -0.205793 3.962727 7.571233 0.000000 0.000000 0.000000 -3.779817 0.742479 -14.474648 -1.085264 0.422528 11.934231 3.027494 2.560547 12.898222 0.000000 0.000000 0.000000 -0.275804 -0.067816 1.928009 1.563773 -0.489210 -3.059657 -4.306055 0.487629 2.813812 5.031020 -4.925567 3.738313 0.000000 0.000000 0.000000 -7.137337 -14.558135 4.178378 -65.064049 -6.176461 -4.985628 -9.128075 -17.531359 1.799493 0.000000 0.000000 0.000000 9.874466 7.246166 3.569037 69.091395 -0.103644 -5.696511 2.856298 25.872708 1.781098 0.000000 0.000000 0.000000 
0.018980 0.954436 -0.004301 -0.422168 10.234452 3.498336 0.687386 -0.386058 -4.436262 1.160327 -0.308207 3.884178 1.380940 6.591358 7.971179 0.000000 0.000000 0.000000 -3.587042 0.960447 -17.082257 -0.645560 0.420796 13.709210 4.450915 3.368387 16.336563 0.000000 0.000000 0.000000 -0.218268 -0.115849 3.067666 1.850796 -0.603510 -3.603653 -4.432508 0.215275 3.112718 5.646211 -5.025250 2.099222 0.000000 0.000000 0.000000 -6.821323 -14.309738 4.373810 -65.201844 -7.128571 -4.346110 -10.705089 -18.179767 2.173394 0.000000 0.000000 0.000000 9.114097 7.196055 3.208645 69.308348 0.049657 -5.830893 3.447323 26.527112 1.903656 0.000000 0.000000 0.000000 
0.021913 0.955946 -0.006714 -1.098364 5.934215 3.589948 1.263263 -0.372419 -4.288293 0.609521 -0.229743 3.839539 2.894110 9.197574 9.182415 0.000000 0.000000 0.000000 -3.457076 1.260030 -19.841827 0.327449 0.344819 15.939147 5.743279 4.301133 17.726001 0.000000 0.000000 0.000000 0.129155 -0.190438 4.379629 1.937466 -0.660716 -3.989153 -4.258382 -0.615701 2.703717 7.125450 -5.911620 0.719677 0.000000 0.000000 0.000000 -6.541463 -14.554166 4.878434 -64.901284 -8.822257 -3.030322 -12.196848 -18.318158 2.517918 0.000000 0.000000 0.000000 8.331064 7.815224 3.028376 69.471779 0.084881 -6.152551 3.357319 26.020091 1.711300 0.000000 0.000000 0.000000 
0.023309 0.958198 -0.007373 -1.736077 1.230720 3.741577 2.220892 -0.305557 -3.600300 -0.556427 -0.032491 3.036409 4.549276 11.940449 11.167008 0.000000 0.000000 0.000000 -3.496321 1.606667 -22.279400 0.994117 0.372754 16.863614 6.618411 4.041187 19.736548 0.000000 0.000000 0.000000 0.569436 -0.277997 5.719942 2.402394 -0.837855 -5.414014 -4.171773 -0.646075 3.484192 8.353004 -6.510673 -1.308969 0.000000 0.000000 0.000000 -5.933380 -14.555578 5.198619 -65.407265 -10.332427 -2.011360 -12.224734 -19.046595 2.709596 0.000000 0.000000 0.000000 7.111155 7.660754 2.649027 70.481780 0.309026 -6.529264 3.746489 25.271419 1.641761 0.000000 0.000000 0.000000 
0.022621 0.959565 -0.005091 -2.029322 -3.260260 3.626979 2.104222 -0.184562 -2.105585 -0.226203 -0.023536 1.668428 6.147988 14.328062 13.449234 0.000000 0.000000 0.000000 -4.341066 1.814422 -23.901614 1.641788 0.400708 17.282950 4.078571 -0.902590 19.245811 0.000000 0.000000 0.000000 0.911566 -0.338076 6.633798 2.542974 -0.951747 -5.678885 -3.823868 -1.119141 3.560557 9.681345 -7.405785 -2.177837 0.000000 0.000000 0.000000 -5.081723 -15.042063 5.683685 -65.859450 -12.635303 -0.317760 -12.455697 -19.227831 2.854536 0.000000 0.000000 0.000000 5.254597 7.954457 2.504316 71.962121 0.148545 -7.314247 3.216698 23.994526 1.329082 0.000000 0.000000 0.000000 
0.018678 0.959160 0.000639 -2.486779 -7.843907 3.819950 2.696344 -0.078470 -0.928272 -0.491788 0.049076 0.520610 8.000822 16.786253 16.366866 0.000000 0.000000 0.000000 -4.997205 2.033315 -24.661516 2.091847 0.419624 16.233897 -0.050408 -8.413789 18.343336 0.000000 0.000000 0.000000 1.754231 -0.410945 6.996232 3.110016 -1.248719 -5.688191 -3.828511 -1.342952 3.237276 10.111722 -7.675536 -2.446456 0.000000 0.000000 0.000000 -4.940140 -15.386301 6.107287 -66.836424 -13.821592 0.797300 -10.812888 -20.494869 2.822986 0.000000 0.000000 0.000000 3.736804 7.423272 2.168652 72.895572 -1.500747 -9.059197 3.310184 23.854719 1.218356 0.000000 0.000000 0.000000 
0.009962 0.957132 0.009591 -2.972421 -12.273026 3.561079 2.473852 0.120674 1.366277 0.445029 -0.048733 -0.230804 10.229765 19.651444 17.056354 0.000000 0.000000 0.000000 -5.340809 2.181873 -24.204833 2.711168 0.348381 14.645011 -3.953050 -15.522935 18.526978 0.000000 0.000000 0.000000 2.471484 -0.497285 7.934517 3.343945 -1.385343 -6.326510 -3.662957 -1.766391 3.975481 10.185651 -7.760733 -2.634483 0.000000 0.000000 0.000000 -4.755309 -15.706433 6.541435 -66.941036 -15.757830 2.306917 -9.244304 -21.410437 2.725999 0.000000 0.000000 0.000000 2.586970 6.777297 1.868185 73.642307 -2.121455 -10.400547 3.676749 23.175082 1.130724 0.000000 0.000000 0.000000 
